<svg width="26" height="23" viewBox="0 0 26 23" fill="none" xmlns="http://www.w3.org/2000/svg">
<path d="M6.14549 15.2332H6.84532H18.7774C19.0657 15.2332 19.3198 15.0438 19.4021 14.7675L21.9729 6.13555C22.0316 5.93832 21.9937 5.72494 21.8707 5.55994C21.7477 5.39494 21.554 5.29774 21.3482 5.29774H4.76047L3.88339 2.35266C3.80111 2.07637 3.54703 1.88696 3.25871 1.88696H0.651794C0.291844 1.88692 0 2.17872 0 2.53871C0 2.89866 0.291844 3.19051 0.651794 3.19051H2.77278L3.64569 6.12146C3.64835 6.13112 3.65115 6.14071 3.65424 6.15016L5.9731 13.9362C4.64949 14.0252 3.59963 15.1298 3.59963 16.4756C3.59963 17.8794 4.7417 19.0214 6.14545 19.0214H6.79251C7.07529 19.9909 7.97145 20.7016 9.03106 20.7016C10.0906 20.7016 10.9868 19.991 11.2696 19.0214H14.7278C15.0106 19.9909 15.9068 20.7016 16.9664 20.7016C18.0259 20.7016 18.9221 19.991 19.2049 19.0214H20.0447C20.4046 19.0214 20.6965 18.7296 20.6965 18.3696C20.6965 18.0097 20.4046 17.7178 20.0447 17.7178H19.2049C18.9221 16.7483 18.026 16.0377 16.9664 16.0377C15.9068 16.0377 15.0106 16.7483 14.7278 17.7178H11.2696C10.9868 16.7483 10.0907 16.0377 9.03106 16.0377C7.97145 16.0377 7.07525 16.7483 6.79251 17.7178H6.14545C5.46044 17.7178 4.90317 17.1605 4.90317 16.4755C4.90317 15.7905 5.46048 15.2332 6.14549 15.2332ZM15.7071 6.60125H20.4741L19.5769 9.61366H15.7071V6.60125ZM15.707 10.9172H19.1886L18.2915 13.9297H15.707V10.9172ZM10.8842 6.60125H14.4035V9.61366H10.8842V6.60125ZM10.8841 10.9172H14.4035V13.9297H10.8841V10.9172ZM9.58067 13.9297H7.3313L6.43415 10.9172H9.58067V13.9297ZM5.14878 6.60125H9.58063V9.61366H6.04593L5.14878 6.60125ZM16.9664 17.3412C17.5335 17.3412 17.9948 17.8025 17.9948 18.3696C17.9948 18.9367 17.5335 19.398 16.9664 19.398C16.3994 19.398 15.938 18.9367 15.938 18.3696C15.938 17.8025 16.3994 17.3412 16.9664 17.3412ZM9.0311 17.3412C9.59816 17.3412 10.0595 17.8025 10.0595 18.3696C10.0595 18.9367 9.59816 19.398 9.0311 19.398C8.46404 19.398 8.00273 18.9367 8.00273 18.3696C8.00273 17.8025 8.46404 17.3412 9.0311 17.3412Z" fill="#969696"/>
</svg>
