<svg width="23" height="22" viewBox="0 0 23 22" fill="none" xmlns="http://www.w3.org/2000/svg">
<path d="M18.1393 0H4.33203C3.97608 0 3.6875 0.288578 3.6875 0.644531V21.3555C3.6875 21.6162 3.84455 21.8512 4.08539 21.9509C4.16514 21.984 4.24889 22 4.3319 22C4.49965 22 4.66448 21.9346 4.7878 21.8112L11.2358 15.3633L17.6836 21.8112C17.8679 21.9955 18.1451 22.0507 18.386 21.9509C18.6268 21.8512 18.7839 21.6162 18.7839 21.3555V0.644531C18.7839 0.288578 18.4953 0 18.1393 0ZM11.2358 13.8072C11.0648 13.8072 10.9009 13.8751 10.78 13.996L4.97656 19.7994V1.28906H17.4948V19.7994L11.6915 13.996C11.5707 13.8751 11.4067 13.8072 11.2358 13.8072Z" fill="#969696"/>
</svg>
