<svg width="22" height="22" viewBox="0 0 22 22" fill="none" xmlns="http://www.w3.org/2000/svg">
<path d="M16.0448 0H5.95519C2.67144 0 0 2.67144 0 5.95519V16.0449C0 19.3285 2.67144 22 5.95519 22H16.0449C19.3285 22 22 19.3285 22 16.0449V5.95519C22 2.67144 19.3285 0 16.0448 0V0ZM20.7102 16.0449C20.7102 18.6173 18.6173 20.7102 16.0448 20.7102H5.95519C3.38261 20.7102 1.28973 18.6173 1.28973 16.0449V5.95519C1.28973 3.38261 3.38261 1.28973 5.95519 1.28973H16.0449C18.6173 1.28973 20.7102 3.38261 20.7102 5.95519V16.0449Z" fill="white"/>
<path d="M10.9998 4.98438C7.68284 4.98438 4.98438 7.68284 4.98438 10.9998C4.98438 14.3168 7.68284 17.0153 10.9998 17.0153C14.3168 17.0153 17.0153 14.3168 17.0153 10.9998C17.0153 7.68284 14.3168 4.98438 10.9998 4.98438ZM10.9998 15.7255C8.39417 15.7255 6.27411 13.6056 6.27411 10.9998C6.27411 8.39417 8.39417 6.27411 10.9998 6.27411C13.6056 6.27411 15.7255 8.39417 15.7255 10.9998C15.7255 13.6056 13.6056 15.7255 10.9998 15.7255Z" fill="white"/>
<path d="M17.1593 2.84863C16.1791 2.84863 15.3818 3.64607 15.3818 4.62613C15.3818 5.60635 16.1791 6.40379 17.1593 6.40379C18.1396 6.40379 18.937 5.60635 18.937 4.62613C18.937 3.6459 18.1396 2.84863 17.1593 2.84863ZM17.1593 5.11389C16.8904 5.11389 16.6716 4.89502 16.6716 4.62613C16.6716 4.35707 16.8904 4.13836 17.1593 4.13836C17.4284 4.13836 17.6473 4.35707 17.6473 4.62613C17.6473 4.89502 17.4284 5.11389 17.1593 5.11389Z" fill="white"/>
</svg>
