<svg width="18" height="18" viewBox="0 0 18 18" fill="none" xmlns="http://www.w3.org/2000/svg">
<g clip-path="url(#clip0)">
<path d="M16.3125 2.24951H1.68751C0.75696 2.24951 0 3.00647 0 3.93702V14.062C0 14.9926 0.75696 15.7495 1.68751 15.7495H16.3125C17.243 15.7495 18 14.9926 18 14.062V3.93702C18 3.00647 17.243 2.24951 16.3125 2.24951ZM16.3125 3.37451C16.3889 3.37451 16.4616 3.39036 16.5281 3.41806L9 9.9427L1.47188 3.41806C1.53834 3.3904 1.61105 3.37451 1.68747 3.37451H16.3125ZM16.3125 14.6245H1.68751C1.37715 14.6245 1.125 14.3724 1.125 14.062V4.60663L8.6314 11.1122C8.73743 11.2039 8.86872 11.2495 9 11.2495C9.13128 11.2495 9.26256 11.2039 9.3686 11.1122L16.875 4.60663V14.062C16.875 14.3724 16.6228 14.6245 16.3125 14.6245Z" fill="#11366A"/>
</g>
<defs>
<clipPath id="clip0">
<rect width="18" height="18" fill="white"/>
</clipPath>
</defs>
</svg>
