<svg width="24" height="24" viewBox="0 0 24 24" fill="none" xmlns="http://www.w3.org/2000/svg">
<path d="M20.8535 5.1465L15.8535 0.146484C15.7598 0.0527344 15.6328 0 15.5 0H4.99997C3.89695 0 3 0.896953 3 2.00002V22C3 23.103 3.89695 24 5.00002 24H19C20.103 24 21 23.103 21 22V5.49998C21 5.36719 20.9473 5.24025 20.8535 5.1465ZM16 1.70705L19.293 5.00002H17C16.4487 5.00002 16 4.55128 16 4.00003V1.70705ZM20 22C20 22.5512 19.5513 23 19 23H5.00002C4.44877 23 4.00003 22.5512 4.00003 22V2.00002C4.00003 1.44877 4.44877 1.00003 5.00002 1.00003H15V4.00003C15 5.10305 15.897 6 17 6H20V22Z" fill="#E16543"/>
<path d="M14.5493 14.6782C14.0864 14.314 13.6465 13.9395 13.3535 13.6465C12.9727 13.2657 12.6333 12.8965 12.3384 12.545C12.7984 11.1236 13 10.3907 13 10C13 8.34036 12.4004 8 11.5 8C10.8159 8 10 8.35545 10 10.0479C10 10.794 10.4087 11.6997 11.2188 12.7525C11.0205 13.3574 10.7876 14.0552 10.5259 14.8418C10.3999 15.2193 10.2632 15.5689 10.1187 15.8921C10.001 15.9444 9.88673 15.9976 9.77639 16.0527C9.37894 16.2515 9.0015 16.4302 8.65139 16.5962C7.05469 17.3521 6 17.8521 6 18.8394C6 19.5562 6.77883 20 7.5 20C8.42967 20 9.83348 18.7583 10.8589 16.6665C11.9233 16.2466 13.2466 15.9355 14.291 15.7407C15.1279 16.3842 16.0522 17 16.5 17C17.7397 17 18 16.2832 18 15.6821C18 14.5 16.6494 14.5 16 14.5C15.7983 14.5 15.2573 14.5596 14.5493 14.6782ZM7.5 19C7.21434 19 7.02098 18.8652 6.99998 18.8394C6.99998 18.4849 8.05711 17.9839 9.07959 17.4995C9.14452 17.4688 9.21047 17.438 9.27736 17.4063C8.52638 18.4952 7.78369 19 7.5 19ZM11 10.0479C11 9.00003 11.3252 9.00003 11.5 9.00003C11.8536 9.00003 12 9.00003 12 10C12 10.211 11.8594 10.7383 11.6021 11.5616C11.2095 10.9571 11 10.439 11 10.0479ZM11.3833 15.4219C11.4146 15.335 11.4449 15.2471 11.4742 15.1582C11.6597 14.6016 11.8267 14.1016 11.9756 13.6514C12.1831 13.8799 12.4068 14.1138 12.6465 14.3535C12.7403 14.4473 12.9727 14.6582 13.2823 14.9224C12.666 15.0567 12.0103 15.2232 11.3833 15.4219ZM17 15.6822C17 15.9068 17 16 16.5361 16.003C16.3999 15.9737 16.085 15.7881 15.6963 15.5235C15.8374 15.5079 15.9414 15.5 16 15.5C16.7388 15.5 16.9483 15.5723 17 15.6822Z" fill="#E16543"/>
</svg>
