<svg width="14" height="14" viewBox="0 0 14 14" fill="none" xmlns="http://www.w3.org/2000/svg">
<path d="M12.0371 8.87663C11.3024 8.87663 10.5811 8.76172 9.89747 8.53581C9.5625 8.42156 9.15072 8.52638 8.94628 8.73634L7.597 9.75491C6.03222 8.91963 5.06834 7.95606 4.24447 6.40303L5.23306 5.08891C5.48991 4.83241 5.58203 4.45772 5.47166 4.10616C5.24478 3.41897 5.12953 2.69794 5.12953 1.96294C5.12956 1.43197 4.69759 1 4.16666 1H1.96291C1.43197 1 1 1.43197 1 1.96291C1 8.04884 5.95119 13 12.0371 13C12.5681 13 13 12.568 13 12.0371V9.8395C13 9.30859 12.568 8.87663 12.0371 8.87663Z" stroke="#969696" stroke-width="0.8"/>
</svg>
