<svg width="18" height="18" viewBox="0 0 18 18" fill="none" xmlns="http://www.w3.org/2000/svg">
<path d="M17.5373 13.2762L15.2995 11.0385C14.6826 10.4216 13.6787 10.4216 13.0618 11.0385L12.0446 12.0556C11.5772 12.523 10.8167 12.5228 10.3495 12.0558L5.9407 7.64343C5.47222 7.17497 5.47215 6.41676 5.9407 5.94823C6.10453 5.7844 6.57498 5.31398 6.95785 4.93112C7.57209 4.31694 7.58067 3.31622 6.95725 2.6929L4.72009 0.462868C4.10314 -0.154019 3.09928 -0.154019 2.48398 0.461251C2.02356 0.917649 1.87505 1.06488 1.6686 1.26953C-0.556183 3.49418 -0.556183 7.11398 1.6685 9.33856L8.65407 16.3275C10.8841 18.5574 14.4934 18.5576 16.7235 16.3275L17.5373 15.5138C18.1542 14.8969 18.1542 13.8931 17.5373 13.2762ZM3.22827 1.20874C3.43391 1.00311 3.76847 1.00308 3.97478 1.20931L6.21194 3.43934C6.41807 3.64546 6.41807 3.97906 6.21194 4.18521L5.83895 4.55815L2.85722 1.57655L3.22827 1.20874ZM9.40012 15.5817L2.41451 8.59272C0.693255 6.87154 0.598645 4.1689 2.12354 2.33469L5.09663 5.30765C4.31542 6.1932 4.34798 7.5426 5.19461 8.3892L9.60326 12.8013C9.6033 12.8014 9.60337 12.8015 9.6034 12.8015C10.4491 13.6472 11.7985 13.6819 12.6852 12.8996L15.6583 15.8727C13.8299 17.3949 11.1332 17.3147 9.40012 15.5817ZM16.7914 14.7679L16.4184 15.1409L13.4348 12.1573L13.8077 11.7844C14.0134 11.5788 14.3479 11.5787 14.5536 11.7844L16.7914 14.022C16.9971 14.2277 16.9971 14.5623 16.7914 14.7679Z" fill="#11366A"/>
</svg>
