<svg width="35" height="29" viewBox="0 0 35 29" fill="none" xmlns="http://www.w3.org/2000/svg">
<path opacity="0.4" d="M19.2254 18.902C19.2254 14.9747 20.4472 11.3674 22.8909 8.08018C25.3636 4.76381 28.5054 2.102 32.3163 0.0947266L34.4545 2.80018C32.5054 4.37109 30.789 6.11654 29.3054 8.03654C27.8509 9.95654 27.1236 11.8765 27.1236 13.7965C27.1236 14.8729 27.3272 15.6002 27.7345 15.9784C28.1709 16.3565 28.7236 16.7347 29.3927 17.1129C30.2072 17.6075 30.9781 18.3202 31.7054 19.2511C32.4327 20.1529 32.7963 21.3311 32.7963 22.7856C32.7963 24.502 32.229 25.9565 31.0945 27.1493C29.9599 28.3129 28.4909 28.8947 26.6872 28.8947C24.709 28.8947 22.9636 28.0656 21.4509 26.4074C19.9672 24.7493 19.2254 22.2475 19.2254 18.902ZM0.854492 18.902C0.854492 14.9747 2.07631 11.3674 4.51995 8.08018C6.99267 4.76381 10.1345 2.102 13.9454 0.0947266L16.0836 2.80018C14.1345 4.37109 12.4181 6.11654 10.9345 8.03654C9.47995 9.95654 8.75267 11.8765 8.75267 13.7965C8.75267 14.8729 8.95631 15.6002 9.36358 15.9784C9.79995 16.3565 10.3527 16.7347 11.0218 17.1129C11.8363 17.6075 12.6072 18.3202 13.3345 19.2511C14.0618 20.1529 14.4254 21.3311 14.4254 22.7856C14.4254 24.502 13.8581 25.9565 12.7236 27.1493C11.589 28.3129 10.1199 28.8947 8.31631 28.8947C6.33813 28.8947 4.59267 28.0656 3.07995 26.4074C1.59631 24.7493 0.854492 22.2475 0.854492 18.902Z" fill="#11366A"/>
</svg>
