<svg width="22" height="22" viewBox="0 0 22 22" fill="none" xmlns="http://www.w3.org/2000/svg">
<g clip-path="url(#clip0)">
<path d="M14.3867 10.0114L9.52636 7.35199C9.2469 7.19908 8.91658 7.20479 8.64265 7.3671C8.36856 7.52957 8.20508 7.81659 8.20508 8.13517V13.4082C8.20508 13.7253 8.36755 14.0118 8.6398 14.1745C8.78197 14.2594 8.93957 14.302 9.09752 14.302C9.2422 14.302 9.38722 14.2663 9.52066 14.1944L14.3812 11.5809C14.6697 11.4256 14.8498 11.1257 14.8511 10.7979C14.8523 10.4701 14.6744 10.1688 14.3867 10.0114ZM9.49431 12.7449V8.80387L13.1268 10.7915L9.49431 12.7449Z" fill="#E16543"/>
<path d="M21.8382 6.59688L21.8372 6.58681C21.8186 6.40973 21.6331 4.83466 20.8674 4.03352C19.9823 3.09123 18.9789 2.97676 18.4964 2.92188C18.4564 2.91734 18.4198 2.91315 18.3871 2.90878L18.3487 2.90475C15.4402 2.69327 11.0478 2.6644 11.0039 2.66423L11 2.66406L10.9961 2.66423C10.9522 2.6644 6.55978 2.69327 3.62515 2.90475L3.58638 2.90878C3.55516 2.91298 3.52075 2.91684 3.48332 2.9212C3.0063 2.97626 2.01366 3.0909 1.12608 4.06726C0.39679 4.85983 0.185974 6.40117 0.164322 6.57439L0.161804 6.59688C0.155258 6.67056 0 8.42473 0 10.1858V11.832C0 13.5931 0.155258 15.3472 0.161804 15.4211L0.162979 15.4322C0.18161 15.6064 0.366913 17.1526 1.1291 17.9541C1.96129 18.8648 3.01352 18.9853 3.5795 19.0501C3.66896 19.0603 3.746 19.0691 3.79854 19.0783L3.8494 19.0853C5.5287 19.2451 10.7939 19.3239 11.0171 19.327L11.0238 19.3272L11.0305 19.327C11.0745 19.3269 15.4667 19.298 18.3752 19.0865L18.4136 19.0825C18.4504 19.0776 18.4917 19.0733 18.537 19.0686C19.0113 19.0182 19.9986 18.9136 20.8739 17.9505C21.6032 17.1578 21.8142 15.6165 21.8357 15.4434L21.8382 15.4209C21.8447 15.3471 22.0002 13.5931 22.0002 11.832V10.1858C22 8.42473 21.8447 6.67073 21.8382 6.59688ZM20.7108 11.832C20.7108 13.462 20.5684 15.1406 20.555 15.2947C20.5003 15.7192 20.2779 16.6944 19.9226 17.0806C19.3747 17.6833 18.8119 17.7431 18.401 17.7865C18.3513 17.7917 18.3054 17.7968 18.2637 17.802C15.4506 18.0054 11.2241 18.0366 11.0294 18.0378C10.811 18.0346 5.62286 17.9552 3.99475 17.804C3.91133 17.7904 3.8212 17.78 3.7262 17.7693C3.24431 17.714 2.58467 17.6385 2.07744 17.0806L2.06552 17.0678C1.7164 16.7041 1.50038 15.7922 1.4455 15.2997C1.43526 15.1832 1.28923 13.4848 1.28923 11.832V10.1858C1.28923 8.55766 1.43123 6.88087 1.44499 6.7236C1.51028 6.22359 1.73688 5.30748 2.07744 4.93721C2.64207 4.31618 3.23743 4.24736 3.6312 4.20187C3.66879 4.19751 3.70387 4.19348 3.73627 4.18929C6.59033 3.98485 10.8473 3.95447 11 3.95329C11.1527 3.9543 15.4082 3.98485 18.2369 4.18929C18.2716 4.19365 18.3096 4.19801 18.3503 4.20271C18.7554 4.24887 19.3675 4.3187 19.9293 4.91791L19.9345 4.92345C20.2836 5.28717 20.4996 6.21503 20.5545 6.71739C20.5642 6.82733 20.7108 8.52946 20.7108 10.1858V11.832Z" fill="#E16543"/>
</g>
<defs>
<clipPath id="clip0">
<rect width="22.0001" height="22" fill="white"/>
</clipPath>
</defs>
</svg>
