<svg width="49" height="50" viewBox="0 0 49 50" fill="none" xmlns="http://www.w3.org/2000/svg">
<path d="M43.8438 15.5H46V14.0625H43.8438V6.15625C43.8438 4.96537 42.8784 4 41.6875 4H4.3125C3.12162 4 2.15625 4.96537 2.15625 6.15625V14.0625H0V15.5H2.15625V17.6562V48.5625H0V50H2.875H7.90625H11.5H23H34.5H38.0938H43.125H46V48.5625H43.8438V17.6562V15.5ZM42.4062 6.15625V14.0625H38.0938V5.4375H41.6875C42.0844 5.4375 42.4062 5.75932 42.4062 6.15625ZM16.5312 11.9062V5.4375H22.2812V14.0625H9.34375V5.4375H15.0938V11.9062H16.5312ZM23.7188 5.4375H29.4688V11.9062H30.9062V5.4375H36.6562V14.0625H23.7188V5.4375ZM3.59375 6.15625C3.59375 5.75932 3.91557 5.4375 4.3125 5.4375H7.90625V14.0625H3.59375V6.15625ZM42.4062 15.5V16.9375H3.59375V15.5H42.4062ZM37.375 48.5625H35.2188V33.4688C35.2188 33.0718 34.8969 32.75 34.5 32.75H30.1875H27.3125H23.7188V30.5938C23.7188 30.1968 23.3969 29.875 23 29.875H14.375C13.9781 29.875 13.6562 30.1968 13.6562 30.5938V38.5H11.5C11.1031 38.5 10.7812 38.8218 10.7812 39.2188V48.5625H8.625V27H37.375V48.5625ZM28.0312 34.1875H29.4688V38.5H28.0312V34.1875ZM17.9688 31.3125H19.4062V34.1875H17.9688V31.3125ZM17.25 35.625H20.125C20.5219 35.625 20.8438 35.3032 20.8438 34.9062V31.3125H22.2812V33.4688V38.5H15.0938V31.3125H16.5312V34.9062C16.5312 35.3032 16.8531 35.625 17.25 35.625ZM12.2188 39.9375H14.375H22.2812V48.5625H12.2188V39.9375ZM23.7188 48.5625V39.2188V34.1875H26.5938V39.2188C26.5938 39.6157 26.9156 39.9375 27.3125 39.9375H30.1875C30.5844 39.9375 30.9062 39.6157 30.9062 39.2188V34.1875H33.7812V48.5625H23.7188ZM38.8125 48.5625V27H40.9688V25.5625H38.0938H7.90625H5.03125V27H7.1875V48.5625H3.59375V22.6875H12.2188V21.25H3.59375V18.375H42.4062V21.25H33.7812V22.6875H42.4062V48.5625H38.8125Z" fill="white"/>
<path d="M31.625 19.8125H14.375C13.9781 19.8125 13.6562 20.1343 13.6562 20.5312V23.4062C13.6562 23.8032 13.9781 24.125 14.375 24.125H31.625C32.0219 24.125 32.3438 23.8032 32.3438 23.4062V20.5312C32.3438 20.1343 32.0219 19.8125 31.625 19.8125ZM30.9062 22.6875H15.0938V21.25H30.9062V22.6875Z" fill="white"/>
<path d="M20.125 41.375H14.375C13.9781 41.375 13.6562 41.6968 13.6562 42.0938V44.9688C13.6562 45.3657 13.9781 45.6875 14.375 45.6875H20.125C20.5219 45.6875 20.8438 45.3657 20.8438 44.9688V42.0938C20.8438 41.6968 20.5219 41.375 20.125 41.375ZM19.4062 44.25H15.0938V42.8125H19.4062V44.25Z" fill="white"/>
<path d="M29.4688 42.0938H28.0312V43.5312H29.4688V42.0938Z" fill="white"/>
<path d="M32.3438 42.0938H30.9062V43.5312H32.3438V42.0938Z" fill="white"/>
<path d="M32.3438 44.9688H25.1562V46.4062H32.3438V44.9688Z" fill="white"/>
<circle cx="44" cy="5" r="5" fill="#E16543"/>
</svg>
