<svg width="50" height="50" viewBox="0 0 50 50" fill="none" xmlns="http://www.w3.org/2000/svg">
<path d="M48.5625 45.2812C48.9593 45.2812 49.2812 44.96 49.2812 44.5625V41.6875C49.2812 37.4742 45.9664 34.0307 41.8091 33.8035C42.7442 33.0567 43.4644 32.0555 43.8727 30.9062H44.25C45.4388 30.9062 46.4062 29.9388 46.4062 28.75C46.4062 27.5612 45.4388 26.5938 44.25 26.5938H45.6875C46.0843 26.5938 46.4062 26.2725 46.4062 25.875V23C46.4062 22.6032 46.0843 22.2812 45.6875 22.2812H44.9688C44.9688 19.1223 42.9182 16.4392 40.0805 15.4776C37.3867 10.8021 32.405 7.90625 27 7.90625C21.5878 7.90625 16.6155 10.8007 13.9209 15.4768C11.0826 16.4385 9.03125 19.1223 9.03125 22.2812H8.3125C7.91575 22.2812 7.59375 22.6032 7.59375 23V25.875C7.59375 26.2725 7.91575 26.5938 8.3125 26.5938H9.75C8.56119 26.5938 7.59375 27.5612 7.59375 28.75C7.59375 29.9388 8.56119 30.9062 9.75 30.9062H10.1273C10.5356 32.0555 11.2558 33.056 12.1909 33.8035C8.03362 34.0307 4.71875 37.4742 4.71875 41.6875V44.5625C4.71875 44.96 5.04075 45.2812 5.4375 45.2812H48.5625ZM39.3136 35.2188L37.7812 37.5166L36.2489 35.2188H39.3136ZM34.5217 35.2188L36.6176 38.3626L35.2599 38.7018L33.3078 35.2856C33.5967 35.2461 33.8885 35.2188 34.1875 35.2188H34.5217ZM41.0408 35.2188H41.375C41.674 35.2188 41.9658 35.2461 42.2547 35.2856L40.3026 38.7018L38.9449 38.3626L41.0408 35.2188ZM37.7812 33.7812C35.0069 33.7812 32.75 31.5237 32.75 28.75V26.5938H42.8125V28.75C42.8125 31.5237 40.5556 33.7812 37.7812 33.7812ZM31.3549 29.4688H31.3125C30.9165 29.4688 30.5938 29.1467 30.5938 28.75C30.5938 28.3533 30.9165 28.0312 31.3125 28.0312V28.75C31.3125 28.9929 31.3283 29.2323 31.3549 29.4688ZM44.9688 28.75C44.9688 29.1467 44.646 29.4688 44.25 29.4688H44.2076C44.2342 29.2323 44.25 28.9929 44.25 28.75V28.0312C44.646 28.0312 44.9688 28.3533 44.9688 28.75ZM44.9688 25.1562H30.5938V23.7188H44.9688V25.1562ZM37.0625 22.2812H32.0312C32.0312 19.3545 34.2306 16.9366 37.0625 16.5808V22.2812ZM43.5312 22.2812H38.5V16.5808C41.3319 16.9366 43.5312 19.3545 43.5312 22.2812ZM27 9.34375C31.4584 9.34375 35.597 11.523 38.1413 15.1117C38.0213 15.106 37.9027 15.0938 37.7812 15.0938C33.8181 15.0938 30.5938 18.3181 30.5938 22.2812H29.875C29.4783 22.2812 29.1562 22.6032 29.1562 23V25.875C29.1562 26.2725 29.4783 26.5938 29.875 26.5938H31.3125C30.1237 26.5938 29.1562 27.5612 29.1562 28.75C29.1562 29.9388 30.1237 30.9062 31.3125 30.9062H31.6898C32.0981 32.0555 32.8183 33.056 33.7534 33.8035C30.749 33.9681 28.1903 35.8103 27 38.4136C25.809 35.811 23.2503 33.9681 20.2466 33.8035C21.1817 33.0567 21.9019 32.0555 22.3102 30.9062H22.6875C23.8763 30.9062 24.8438 29.9388 24.8438 28.75C24.8438 27.5612 23.8763 26.5938 22.6875 26.5938H24.125C24.5217 26.5938 24.8438 26.2725 24.8438 25.875V23C24.8438 22.6032 24.5217 22.2812 24.125 22.2812H23.4062C23.4062 18.3181 20.1819 15.0938 16.2188 15.0938C16.0966 15.0938 15.978 15.106 15.8572 15.1117C18.4009 11.5208 22.5351 9.34375 27 9.34375ZM26.2812 43.8438H23.4062V39.5312H21.9688V43.8438H16.9375V39.7325L18.9191 40.2277C18.9773 40.2428 19.0355 40.25 19.0938 40.25C19.3475 40.25 19.5875 40.1149 19.7176 39.8877L22.1348 35.6572C24.5563 36.593 26.2812 38.9397 26.2812 41.6875V43.8438ZM12.9592 35.2188L15.0551 38.3626L13.6974 38.7018L11.7453 35.2856C12.0342 35.2461 12.326 35.2188 12.625 35.2188H12.9592ZM17.7511 35.2188L16.2188 37.5166L14.6864 35.2188H17.7511ZM19.8125 35.2188C20.1115 35.2188 20.4033 35.2461 20.6923 35.2856L18.7401 38.7018L17.3824 38.3626L19.4783 35.2188H19.8125ZM22.6875 28.75V28.0312C23.0835 28.0312 23.4062 28.3533 23.4062 28.75C23.4062 29.1467 23.0835 29.4688 22.6875 29.4688H22.6451C22.6717 29.2323 22.6875 28.9929 22.6875 28.75ZM16.9375 16.5808C19.7694 16.9366 21.9688 19.3545 21.9688 22.2812H16.9375V16.5808ZM15.5 16.5808V22.2812H10.4688C10.4688 19.3545 12.6681 16.9366 15.5 16.5808ZM9.03125 25.1562V23.7188H23.4062V25.1562H9.03125ZM9.75 29.4688C9.35397 29.4688 9.03125 29.1467 9.03125 28.75C9.03125 28.3533 9.35397 28.0312 9.75 28.0312V28.75C9.75 28.9929 9.76581 29.2323 9.79241 29.4688H9.75ZM11.1875 28.75V26.5938H21.25V28.75C21.25 31.5237 18.9931 33.7812 16.2188 33.7812C13.4444 33.7812 11.1875 31.5237 11.1875 28.75ZM6.15625 41.6875C6.15625 38.9397 7.88125 36.593 10.302 35.6572L12.7192 39.8877C12.8492 40.1149 13.09 40.25 13.3438 40.25C13.402 40.25 13.4602 40.2428 13.5184 40.2284L15.5 39.7325V43.8438H10.4688V39.5312H9.03125V43.8438H6.15625V41.6875ZM27.7188 41.6875C27.7188 38.9397 29.4438 36.593 31.8645 35.6572L34.2817 39.8877C34.4118 40.1149 34.6525 40.25 34.9062 40.25C34.9645 40.25 35.0227 40.2428 35.0809 40.2284L37.0625 39.7325V43.8438H32.0312V39.5312H30.5938V43.8438H27.7188V41.6875ZM47.8438 43.8438H44.9688V39.5312H43.5312V43.8438H38.5V39.7325L40.4816 40.2277C40.5398 40.2428 40.598 40.25 40.6562 40.25C40.91 40.25 41.15 40.1149 41.2801 39.8877L43.6973 35.6572C46.1187 36.593 47.8438 38.9397 47.8438 41.6875V43.8438Z" fill="white"/>
<path d="M48.5625 18.6875H45.9218C45.4338 16.5327 44.5907 14.5022 43.4105 12.6371L45.4769 10.5707C45.7579 10.2896 45.7579 9.83537 45.4769 9.55434L40.4457 4.52309C40.1646 4.24206 39.7104 4.24206 39.4293 4.52309L37.3629 6.5895C35.4978 5.40859 33.4673 4.56622 31.3125 4.07819V1.4375C31.3125 1.04075 30.9905 0.71875 30.5938 0.71875H23.4062C23.0095 0.71875 22.6875 1.04075 22.6875 1.4375V4.07819C20.5327 4.56622 18.5022 5.40931 16.6371 6.5895L14.5707 4.52309C14.2896 4.24206 13.8354 4.24206 13.5543 4.52309L8.52309 9.55434C8.24206 9.83537 8.24206 10.2896 8.52309 10.5707L10.5895 12.6371C9.40859 14.5022 8.56622 16.5327 8.07819 18.6875H5.4375C5.04075 18.6875 4.71875 19.0095 4.71875 19.4062V26.5938C4.71875 26.9912 5.04075 27.3125 5.4375 27.3125H6.875V25.875H6.15625V20.125H8.66109C9.00537 20.125 9.30078 19.8813 9.36619 19.5435C9.82906 17.1673 10.7505 14.9471 12.1053 12.9447C12.2987 12.6593 12.262 12.277 12.0184 12.0333L10.0476 10.0625L14.0625 6.04756L16.034 8.01909C16.277 8.26203 16.6586 8.29941 16.9454 8.10606C18.9478 6.75122 21.1681 5.82978 23.5443 5.36691C23.8813 5.30078 24.125 5.00537 24.125 4.66109V2.15625H29.875V4.66109C29.875 5.00537 30.1187 5.30078 30.4565 5.36619C32.8327 5.82906 35.0529 6.7505 37.0553 8.10534C37.3421 8.29869 37.723 8.26131 37.9667 8.01837L39.9375 6.04756L43.9524 10.0625L41.9809 12.034C41.7372 12.2777 41.7006 12.6601 41.8939 12.9454C43.2488 14.9478 44.1702 17.1681 44.6331 19.5443C44.6992 19.8813 44.9946 20.125 45.3389 20.125H47.8438V25.875H47.125V27.3125H48.5625C48.9593 27.3125 49.2812 26.9912 49.2812 26.5938V19.4062C49.2812 19.0095 48.9593 18.6875 48.5625 18.6875Z" fill="white"/>
<circle cx="5" cy="45" r="5" fill="#E16543"/>
</svg>
