<svg width="50" height="50" viewBox="0 0 50 50" fill="none" xmlns="http://www.w3.org/2000/svg">
<path d="M45.2579 4H3.70967C3.3003 4 2.96773 4.33257 2.96773 4.74193V6.96773H0.741933C0.332566 6.96773 0 7.3003 0 7.70966V37.387C0 37.7974 0.332566 38.1289 0.741933 38.1289H15.2252C15.9316 38.9828 16.8116 39.6856 17.8064 40.196V49.2579C17.8064 49.5575 17.9875 49.8292 18.2643 49.9433C18.5411 50.0585 18.8599 49.9947 19.0729 49.7825L21.5161 47.3393L23.9592 49.7825C24.1009 49.9241 24.2911 49.9998 24.4838 49.9998C24.5794 49.9998 24.6762 49.9821 24.7682 49.9433C25.0446 49.8292 25.2257 49.5575 25.2257 49.2579V40.196C26.2202 39.6856 27.0998 38.9835 27.8069 38.1289H42.2902C42.6999 38.1289 43.0321 37.7974 43.0321 37.387V35.1612H45.2579C45.6677 35.1612 45.9999 34.8297 45.9999 34.4192V4.74193C45.9999 4.33257 45.6677 4 45.2579 4ZM23.7419 47.4668L22.0406 45.7656C21.7505 45.4754 21.2817 45.4754 20.9915 45.7656L19.2903 47.4668V40.7807C19.9989 40.9818 20.7437 41.0966 21.5161 41.0966C22.2884 41.0966 23.0333 40.9818 23.7419 40.7807V47.4668ZM21.5161 39.6128C17.8347 39.6128 14.8387 36.6175 14.8387 32.9354C14.8387 29.2532 17.8347 26.258 21.5161 26.258C25.1975 26.258 28.1935 29.2532 28.1935 32.9354C28.1935 36.6175 25.1975 39.6128 21.5161 39.6128ZM13.3928 33.6773H8.85067C8.52426 31.4055 6.72268 29.605 4.4516 29.2782V15.8184C6.72268 15.4916 8.52426 13.6904 8.85067 11.4193H34.1825C34.509 13.6904 36.3102 15.4916 38.5813 15.8184V29.279C36.3102 29.605 34.509 31.4062 34.1825 33.678H29.6404C29.6618 33.4324 29.6773 33.1861 29.6773 32.9354C29.6773 28.4356 26.0158 24.7741 21.5161 24.7741C17.0163 24.7741 13.3548 28.4356 13.3548 32.9354C13.3548 33.1861 13.3704 33.4324 13.3928 33.6773ZM41.5483 36.645H28.7767C29.018 36.1748 29.2143 35.6792 29.3614 35.1612H34.8709C35.2806 35.1612 35.6128 34.8297 35.6128 34.4192C35.6128 32.3738 37.2771 30.7096 39.3225 30.7096C39.7322 30.7096 40.0644 30.3781 40.0644 29.9676V15.129C40.0644 14.7196 39.7322 14.3871 39.3225 14.3871C37.2771 14.3871 35.6128 12.7228 35.6128 10.6774C35.6128 10.268 35.2806 9.93546 34.8709 9.93546H8.16127C7.7519 9.93546 7.41933 10.268 7.41933 10.6774C7.41933 12.7228 5.75542 14.3871 3.70967 14.3871C3.3003 14.3871 2.96773 14.7196 2.96773 15.129V29.9676C2.96773 30.3781 3.3003 30.7096 3.70967 30.7096C5.75542 30.7096 7.41933 32.3738 7.41933 34.4192C7.41933 34.8297 7.7519 35.1612 8.16127 35.1612H13.6711C13.8178 35.6792 14.0145 36.1748 14.2554 36.645H1.48387V8.4516H41.5483V36.645ZM44.516 33.6773H43.0321V7.70966C43.0321 7.3003 42.6999 6.96773 42.2902 6.96773H4.4516V5.48387H44.516V33.6773Z" fill="white"/>
<path d="M21.5168 27.7422C18.653 27.7422 16.3232 30.0727 16.3232 32.9357H17.8071C17.8071 30.8903 19.4714 29.2261 21.5168 29.2261V27.7422Z" fill="white"/>
<path d="M25.2253 32.9355C25.2253 34.9809 23.5614 36.6452 21.5156 36.6452V38.1291C24.3794 38.1291 26.7092 35.7986 26.7092 32.9355H25.2253Z" fill="white"/>
<path d="M32.6458 16.613V13.6453C32.6458 13.2359 32.3136 12.9033 31.9038 12.9033H11.1296C10.7203 12.9033 10.3877 13.2359 10.3877 13.6453V16.613C10.3877 17.0224 10.7203 17.3549 11.1296 17.3549H31.9038C32.3136 17.3549 32.6458 17.0224 32.6458 16.613ZM31.1619 15.8711H11.8716V14.3872H31.1619V15.8711Z" fill="white"/>
<path d="M5.93555 18.8384H11.871V20.3222H5.93555V18.8384Z" fill="white"/>
<path d="M5.93555 21.8062H11.871V23.29H5.93555V21.8062Z" fill="white"/>
<path d="M13.3555 21.8062H37.0974V23.29H13.3555V21.8062Z" fill="white"/>
<path d="M13.3555 18.8384H37.0974V20.3222H13.3555V18.8384Z" fill="white"/>
<circle cx="45" cy="5" r="5" fill="#E16543"/>
</svg>
