<svg width="46" height="50" viewBox="0 0 46 50" fill="none" xmlns="http://www.w3.org/2000/svg">
<path d="M43.125 32.3438H39.1719C38.9735 32.3438 38.8125 32.1827 38.8125 31.9844C38.8125 31.906 38.8377 31.8313 38.8844 31.7688C40.2292 29.9769 40.9688 27.756 40.9688 25.5156V25.1562C40.9688 23.1747 39.3566 21.5625 37.375 21.5625C36.5822 21.5625 35.9375 22.2072 35.9375 23V24.2398C35.9375 26.0295 35.2403 27.7114 33.9753 28.9771C33.5541 29.3976 33.079 29.7613 32.5623 30.056L28.5588 32.3438H26.5938V30.9062H13.6426C14.5489 29.7031 15.0938 28.2131 15.0938 26.5938C15.0938 22.6306 11.8694 19.4062 7.90625 19.4062C3.94306 19.4062 0.71875 22.6306 0.71875 26.5938C0.71875 30.5569 3.94306 33.7812 7.90625 33.7812C8.92831 33.7812 9.90006 33.5635 10.7812 33.1768V45.2812H26.5938V43.8438H28.612L32.2057 45.2812H43.125C44.3138 45.2812 45.2812 44.3138 45.2812 43.125C45.2812 42.5708 45.0649 42.0699 44.7206 41.6875C45.0656 41.3051 45.2812 40.8042 45.2812 40.25C45.2812 39.6958 45.0649 39.1949 44.7206 38.8125C45.0656 38.4301 45.2812 37.9292 45.2812 37.375C45.2812 36.8208 45.0649 36.3199 44.7206 35.9375C45.0656 35.5551 45.2812 35.0542 45.2812 34.5C45.2812 33.3112 44.3138 32.3438 43.125 32.3438ZM2.15625 26.5938C2.15625 23.4233 4.73584 20.8438 7.90625 20.8438C11.0767 20.8438 13.6562 23.4233 13.6562 26.5938C13.6562 27.9543 13.179 29.205 12.3855 30.1904C11.8162 29.4817 11.0946 28.9232 10.2788 28.5531C11.022 27.894 11.5 26.9438 11.5 25.875C11.5 23.8934 9.88784 22.2812 7.90625 22.2812C5.92466 22.2812 4.3125 23.8934 4.3125 25.875C4.3125 26.9438 4.79047 27.894 5.53366 28.5531C4.71788 28.9239 3.99625 29.4824 3.427 30.1904C2.6335 29.205 2.15625 27.9543 2.15625 26.5938ZM5.75 25.875C5.75 24.6862 6.71744 23.7188 7.90625 23.7188C9.09506 23.7188 10.0625 24.6862 10.0625 25.875C10.0625 27.0638 9.09506 28.0312 7.90625 28.0312C6.71744 28.0312 5.75 27.0638 5.75 25.875ZM4.462 31.1873C5.27059 30.1149 6.54278 29.4688 7.90625 29.4688C9.26972 29.4688 10.5419 30.1156 11.3505 31.1873C10.3888 31.9096 9.19856 32.3438 7.90625 32.3438C6.61394 32.3438 5.42369 31.9096 4.462 31.1873ZM12.2188 32.3438H22.2812V43.8438H12.2188V32.3438ZM25.1562 43.8438H23.7188V32.3438H25.1562V43.8438ZM43.125 43.8438H32.4818L28.888 42.4062H26.5938V33.7812H28.9412L33.2752 31.3044C33.9027 30.9458 34.4806 30.5052 34.9916 29.9934C36.5283 28.4567 37.375 26.4133 37.375 24.2398V23C38.5638 23 39.5312 23.9674 39.5312 25.1562V25.5156C39.5312 27.4469 38.893 29.3617 37.7337 30.907C37.5022 31.216 37.375 31.5984 37.375 31.9844C37.375 32.9748 38.1814 33.7812 39.1719 33.7812H43.125C43.521 33.7812 43.8438 34.104 43.8438 34.5C43.8438 34.896 43.521 35.2188 43.125 35.2188H39.5312V36.6562H43.125C43.521 36.6562 43.8438 36.979 43.8438 37.375C43.8438 37.771 43.521 38.0938 43.125 38.0938H39.5312V39.5312H43.125C43.521 39.5312 43.8438 39.854 43.8438 40.25C43.8438 40.646 43.521 40.9688 43.125 40.9688H39.5312V42.4062H43.125C43.521 42.4062 43.8438 42.729 43.8438 43.125C43.8438 43.521 43.521 43.8438 43.125 43.8438Z" fill="white"/>
<path d="M38.0938 20.125C42.0569 20.125 45.2812 16.9007 45.2812 12.9375C45.2812 8.97431 42.0569 5.75 38.0938 5.75C34.1306 5.75 30.9062 8.97431 30.9062 12.9375C30.9062 16.9007 34.1306 20.125 38.0938 20.125ZM34.6495 17.531C35.4581 16.4587 36.7303 15.8125 38.0938 15.8125C39.4572 15.8125 40.7294 16.4594 41.538 17.531C40.5763 18.2534 39.3861 18.6875 38.0938 18.6875C36.8014 18.6875 35.6112 18.2534 34.6495 17.531ZM35.9375 12.2188C35.9375 11.0299 36.9049 10.0625 38.0938 10.0625C39.2826 10.0625 40.25 11.0299 40.25 12.2188C40.25 13.4076 39.2826 14.375 38.0938 14.375C36.9049 14.375 35.9375 13.4076 35.9375 12.2188ZM38.0938 7.1875C41.2642 7.1875 43.8438 9.76709 43.8438 12.9375C43.8438 14.2981 43.3665 15.5487 42.573 16.5341C42.0037 15.8254 41.2821 15.267 40.4663 14.8968C41.2095 14.2377 41.6875 13.2875 41.6875 12.2188C41.6875 10.2372 40.0753 8.625 38.0938 8.625C36.1122 8.625 34.5 10.2372 34.5 12.2188C34.5 13.2875 34.978 14.2377 35.7212 14.8968C34.9054 15.2677 34.1838 15.8262 33.6145 16.5341C32.821 15.5487 32.3438 14.2981 32.3438 12.9375C32.3438 9.76709 34.9233 7.1875 38.0938 7.1875Z" fill="white"/>
<path d="M19.4062 20.8438C24.955 20.8438 29.4688 16.33 29.4688 10.7812C29.4688 5.2325 24.955 0.71875 19.4062 0.71875C13.8575 0.71875 9.34375 5.2325 9.34375 10.7812C9.34375 16.33 13.8575 20.8438 19.4062 20.8438ZM19.4062 19.4062C16.9841 19.4062 14.7948 18.3986 13.2264 16.785C13.5628 15.6846 14.1709 14.7236 14.9708 13.9718L16.0964 18.474L19.4062 15.9922L22.7161 18.4748L23.8417 13.9725C24.6409 14.7243 25.249 15.6853 25.5861 16.7857C24.0177 18.3986 21.8284 19.4062 19.4062 19.4062ZM16.5312 7.90625C16.5312 6.32069 17.8207 5.03125 19.4062 5.03125C20.9918 5.03125 22.2812 6.32069 22.2812 7.90625C22.2812 9.49181 20.9918 10.7812 19.4062 10.7812C17.8207 10.7812 16.5312 9.49181 16.5312 7.90625ZM19.4062 13.9711L18.0658 12.3625C18.4999 12.2719 18.9477 12.2188 19.4062 12.2188C19.8648 12.2188 20.3126 12.2719 20.7467 12.3625L19.4062 13.9711ZM22.2065 12.8563C22.3366 12.9181 22.4645 12.9828 22.5896 13.0532L21.8464 16.026L20.4427 14.973L22.2065 12.8563ZM16.606 12.8563L18.3698 14.973L16.9661 16.026L16.2229 13.0532C16.348 12.9821 16.4759 12.9181 16.606 12.8563ZM19.4062 2.15625C24.1622 2.15625 28.0312 6.02528 28.0312 10.7812C28.0312 12.5127 27.5138 14.1227 26.6318 15.4754C25.7564 13.4945 24.1155 11.9837 22.1138 11.2578C23.092 10.4664 23.7188 9.25894 23.7188 7.90625C23.7188 5.52791 21.7846 3.59375 19.4062 3.59375C17.0279 3.59375 15.0938 5.52791 15.0938 7.90625C15.0938 9.25894 15.7205 10.4664 16.698 11.2578C14.6963 11.983 13.0554 13.4945 12.1799 15.4754C11.2987 14.1227 10.7812 12.5127 10.7812 10.7812C10.7812 6.02528 14.6503 2.15625 19.4062 2.15625Z" fill="white"/>
<path d="M16.5312 22.2812H17.9688V23.7188H16.5312V22.2812Z" fill="white"/>
<path d="M19.4062 22.2812H30.9062V23.7188H19.4062V22.2812Z" fill="white"/>
<path d="M16.5312 25.1562H30.9062V26.5938H16.5312V25.1562Z" fill="white"/>
<path d="M16.5312 28.0312H29.4688V29.4688H16.5312V28.0312Z" fill="white"/>
<path d="M13.6562 40.9688H15.0938V42.4062H13.6562V40.9688Z" fill="white"/>
<path d="M16.5312 40.9688H17.9688V42.4062H16.5312V40.9688Z" fill="white"/>
<path d="M19.4062 40.9688H20.8438V42.4062H19.4062V40.9688Z" fill="white"/>
<circle cx="10" cy="45" r="5" fill="#E16543"/>
</svg>
