<svg width="50" height="48" viewBox="0 0 50 48" fill="none" xmlns="http://www.w3.org/2000/svg">
<path d="M45.3262 6.46452H24.3265V2.67383C24.3265 2.3017 24.0248 2 23.6526 2H19.4486C19.0764 2 18.7747 2.3017 18.7747 2.67383V6.46452H10.5287C10.1566 6.46452 9.85487 6.76621 9.85487 7.13834V12.9316C9.41014 13.1687 8.98869 13.4802 8.6338 13.8389V11.8585C8.6338 10.6369 7.41849 9.63375 5.61083 9.3007V7.83796C5.61083 7.46582 5.30914 7.16413 4.937 7.16413C3.74406 7.16413 2.53117 7.62278 1.60928 8.42248C0.571586 9.32271 0 10.5723 0 11.9409V14.764C0 15.6352 1.34766 15.6352 1.34766 14.764V11.9409C1.34766 10.4659 2.44528 8.88634 4.26318 8.56911V34.4175C3.20571 34.5497 2.12579 34.9727 1.35035 35.7179C1.34891 34.8003 1.34766 18.3446 1.34766 18.3446C1.34766 17.4734 0 17.4734 0 18.3446V39.2751C0 39.3129 0.00386328 39.3498 0.00988281 39.3859C0.0760977 41.3623 1.90469 42.8394 4.3169 42.8394C5.48478 42.8394 6.52966 42.507 7.29936 41.9592L7.29972 44.4364C7.30007 46.7134 9.57734 48 11.6172 48C13.7825 47.9996 15.9335 46.7802 15.9335 44.435L15.932 34.9081H35.1217L21.1392 46.8132C20.6717 47.2111 20.9621 48 21.576 48H41.8688C42.241 48 42.5426 47.6983 42.5426 47.3262V44.0575C42.5426 43.1863 41.195 43.1863 41.195 44.0575V46.6523H23.4069L41.195 31.5075V40.3401C41.195 41.2113 42.5426 41.2113 42.5426 40.3401V34.9083H45.3262C45.6984 34.9083 46 34.6066 46 34.2345V24.8293V7.13834C46 6.76621 45.6984 6.46452 45.3262 6.46452ZM44.6523 7.81217V24.1555H28.8711V7.81217H44.6523ZM22.9788 3.34766V20.5927H20.1224V18.8707H20.6117C21.4829 18.8707 21.4829 17.523 20.6117 17.523H20.1224V15.7573H21.2406C22.1118 15.7573 22.1118 14.4097 21.2406 14.4097H20.1224V12.644H20.6117C20.9838 12.644 21.2855 12.3423 21.2855 11.9701C21.2855 11.598 20.9838 11.2963 20.6117 11.2963H20.1224V9.53061H21.2406C22.1118 9.53061 22.1118 8.18296 21.2406 8.18296H20.1224V6.41735H20.6117C21.4829 6.41735 21.4829 5.06969 20.6117 5.06969H20.1224V3.34766H22.9788ZM10.6429 14.0193C10.9338 13.8817 11.2389 13.7852 11.5581 13.7297L11.5623 39.5781C10.8116 39.6721 9.59819 39.967 8.64962 40.879C8.64809 39.974 8.64665 39.2735 8.64665 39.2544L8.64306 17.1019C8.64288 15.8945 9.3787 14.6173 10.6429 14.0193ZM14.5856 42.4688C14.5629 42.4557 14.54 42.4429 14.5167 42.4301C13.7438 42.0059 12.7348 41.7692 11.6699 41.7617L11.6698 40.924C11.9927 40.8795 12.2096 40.8828 12.2148 40.8828C12.6367 40.8546 12.8684 40.6301 12.9099 40.2093L12.9061 15.8436C13.7993 16.0646 14.5815 16.5174 14.5816 17.0186L14.5856 42.4688ZM7.28615 11.8585V34.0935V37.2995C6.53532 36.8684 5.52072 36.6089 4.37063 36.6012V35.7633C4.69371 35.7188 4.91059 35.7222 4.91562 35.7223C5.33753 35.6941 5.56923 35.4696 5.61083 35.0488V10.6788C6.63721 10.9245 7.28615 11.4341 7.28615 11.8585ZM7.28615 39.5942C7.28615 40.6227 5.92636 41.4917 4.3169 41.4917C2.62802 41.4917 1.35439 40.5388 1.35439 39.2751C1.35439 37.9954 1.81826 36.7833 3.02297 36.1712V37.3041C3.07095 37.7449 3.31667 37.9685 3.76005 37.975C4.6964 37.8868 5.73149 37.9916 6.56866 38.4512C7.05175 38.7165 7.3255 39.0534 7.28615 39.5942ZM11.6171 46.6523C11.6168 46.6523 11.6167 46.6523 11.6163 46.6523C9.92791 46.6523 8.65429 45.6996 8.65411 44.4363C8.65393 43.1566 9.11752 41.9443 10.3222 41.332L10.3224 42.465C10.3705 42.9057 10.6162 43.1293 11.0595 43.1357C12.2026 43.0282 14.6408 43.2117 14.586 44.7543C14.5861 45.7829 13.2265 46.6522 11.6171 46.6523ZM15.9292 17.0183C15.929 15.8052 14.7097 14.7962 12.9058 14.4617L12.9055 12.9983C12.8669 12.5876 12.6423 12.363 12.2316 12.3246C11.8877 12.3247 11.5423 12.364 11.2025 12.4375V7.81217H18.7747V21.2665C18.7747 21.6386 19.0764 21.9403 19.4486 21.9403H23.6526C24.0248 21.9403 24.3265 21.6386 24.3265 21.2665V7.81217H27.5235V24.8293V33.5606H15.9319L15.9292 17.0183ZM42.1514 29.437C41.9127 29.3268 41.632 29.3652 41.4319 29.5357L36.7046 33.5606H28.8711V25.5031H44.6523V33.5606H42.5426V30.0488C42.5426 29.7861 42.3899 29.5473 42.1514 29.437Z" fill="white"/>
<path d="M32.1046 21.309H38.3132C38.4906 21.309 38.6652 21.2364 38.7904 21.1108L41.8947 18.009C42.0212 17.8826 42.0922 17.7111 42.0922 17.5323L42.0913 11.3324C42.0913 10.9678 41.782 10.6587 41.4174 10.6587L35.208 10.6594C35.0294 10.6594 34.858 10.7304 34.7318 10.8566L31.6288 13.9572C31.5035 14.0821 31.4307 14.2577 31.4307 14.4344V20.6351C31.4308 21.0073 31.7324 21.309 32.1046 21.309ZM32.7784 15.1082H37.6394V19.9613H32.7784V15.1082ZM38.9872 19.0093V14.7137L40.7441 12.9582L40.7448 17.2532L38.9872 19.0093ZM35.4872 12.0071L39.7898 12.0065L38.0344 13.7605H33.7322L35.4872 12.0071Z" fill="white"/>
<path d="M35.2914 30.2188H33.0587C32.1875 30.2188 32.1875 31.5664 33.0587 31.5664H35.2914C36.1626 31.5664 36.1626 30.2188 35.2914 30.2188Z" fill="white"/>
<path d="M38.7797 27.5371H33.0587C32.1875 27.5371 32.1875 28.8848 33.0587 28.8848H38.7797C39.6509 28.8848 39.6509 27.5371 38.7797 27.5371Z" fill="white"/>
<path d="M38.1588 36.6176L30.023 43.5446C29.5557 43.9425 29.846 44.7314 30.4598 44.7314H38.5956C38.9678 44.7314 39.2694 44.4297 39.2694 44.0576V37.1306C39.2694 36.6183 38.6224 36.2228 38.1588 36.6176ZM37.9218 43.3838H32.2906L37.9218 38.5893V43.3838Z" fill="white"/>
<circle cx="45" cy="5" r="5" fill="#E16543"/>
</svg>
